/* XPM */
static char *e777b44f31e642e1fd822d069b3a8a33UeyQRnwcboOIIsSv[] = {
/* columns rows colors chars-per-pixel */
"64 64 6 1 ",
"  c #3859B3",
". c #5E5B8C",
"X c #3388DE",
"o c #8A8292",
"O c #FFD1D5",
"+ c #F6E8E0",
/* pixels */
"oooooooooooooooooooooooooooooooooooooooooooooooooooooooooooooooo",
"oooooooooooooooooooooooooooooooooooooooooooooooooooooooooooooooo",
"................................................................",
"................................................................",
"oooooooooo..ooooooooooooooooooo..ooooooooooooooooooo..oooooooooo",
"oooooooooo..ooooooooooooooooooo..ooooooooooooooooooo..oooooooooo",
"ooooooo..o..o..ooooooooooooo..o..o..ooooooooooooo..o..o..ooooooo",
"ooooooo..o..o..ooooooooooooo..o..o..ooooooooooooo..o..o..ooooooo",
"oooooooooo..ooooooooooooooooooo..ooooooooooooooooooo..oooooooooo",
"oooooooooo..ooooooooooooooooooo..ooooooooooooooooooo..oooooooooo",
"oooooooooo..ooooooooooooooooooo..ooooooooooooooooooo..oooooooooo",
"oooooooooo..ooooooooooooooooooo..ooooooooooooooooooo..oooooooooo",
"oooooooooo..ooooooooooooooooooo..ooooooooooooooooooo..oooooooooo",
"oooooooooo..ooooooooooooooooooo..ooooooooooooooooooo..oooooooooo",
"oooooooooo..ooooooooooooooooooo..ooooooooooooooooooo..oooooooooo",
"oooooooooo..ooooooooooooooooooo..ooooooooooooooooooo..oooooooooo",
"oooooooooo..ooooooooooooooooooo..ooooooooooooooooooo..oooooooooo",
"oooooooooo..ooooooooooooooooooo..ooooooooooooooooooo..oooooooooo",
"oooooooooo..ooooooooooooooooooo..ooooooooooooooooooo..oooooooooo",
"oooooooooo..ooooooooooooooooooo..ooooooooooooooooooo..oooooooooo",
"oooooooooo..ooooooooooooooooooo..ooooooooooooooooooo..oooooooooo",
"oooooooooo..ooooooooooooooooooo..ooooooooooooooooooo..oooooooooo",
"oooooooooo..ooooooooooooooooooo..ooooooooooooooooooo..oooooooooo",
"oooooooooo..ooooooooooooooooooo..ooooooooooooooooooo..oooooooooo",
"oooooooooo..ooooooooooooooooooo..ooooooooooooooooooo..oooooooooo",
"oooooooooo..ooooooooooooooooooo..ooooooooooooooooooo..oooooooooo",
"oooooooooo..ooooooooooooooooooo..ooooooooooooooooooo..oooooooooo",
"oooooooooo..ooooooooooooooooooo..ooooooooooooooooooo..oooooooooo",
"oooooooooo..ooooooooooooooooooo..ooooooooooooooooooo..oooooooooo",
"oooooooooo..ooooooooooooooooooo..ooooooooooooooooooo..oooooooooo",
"oooooooooo..ooooooooooooooooooo..ooooooooooooooooooo..oooooooooo",
"oooooooooo..ooooooooooooooooooo..ooooooooooooooooooo..oooooooooo",
"oooooooooo..ooooooooooooooooooo..ooooooooooooooooooo..oooooooooo",
"oooooooooo..ooooooooooooooooooo..ooooooooooooooooooo..oooooooooo",
"oooo              ooooooo              ooooooo              oooo",
"ooo XXXXXXXXXXXXXX ooooo XXXXXXXXXXXXXX ooooo XXXXXXXXXXXXXX ooo",
"oo XXXXXXXXXXXXXXXX ooo XXXXXXXXXXXXXXXX ooo XXXXXXXXXXXXXXXX oo",
"ooXXXXXXXXXXXXXXXXXXoooXXXXXXXXXXXXXXXXXXoooXXXXXXXXXXXXXXXXXXoo",
"ooOXXXXXXXXXXXXXXXX+oooOXXXXXXXXXXXXXXXXOoooOXXXXXXXXXXXXXXXXOoo",
"ooO+XXXXXXXXXXXXXX++oooO+XXXXXXXXXXXXXX+OoooO+XXXXXXXXXXXXXX+Ooo",
"ooO+XXXXXXXXXXXXXX+OoooO+XXXXXXXXXXXXXX+OoooO+XXXXXXXXXXXXXX+Ooo",
"ooXO+XXXXXXXXXXXX+OXoooXO+XXXXXXXXXXXX+OXoooXO+XXXXXXXXXXXX+OXoo",
"ooXO+XXXXXXXXXXXX+OXoooXO+XXXXXXXXXXXX+OXoooXO+XXXXXXXXXXXX+OXoo",
"..XX++XXXXXXXXXX++XX...XX++XXXXXXXXXX++XX...XX++XXXXXXXXXX++XX..",
"..XX++XXXXXXXXXX++XX...XX++XXXXXXXXXX++XX...XX++XXXXXXXXXX++XX..",
"ooXXX++XXXXXXXX++XXXoooXXX++XXXXXXXX++XXXoooXXX++XXXXXXXX++XXXoo",
"ooXXXO+XXXXXXXX+OXXXoooXXXO+XXXXXXXX+OXXXoooXXXO+XXXXXXXX+OXXXoo",
"ooXXXXO+XXXXXX+OXXXXoooXXXXO+XXXXXX+OXXXXoooXXXXO+XXXXXX+OXXXXoo",
"oo XXXO+XXXXXX+OXXX ooo XXXO+XXXXXX+OXXX ooo XXXO+XXXXXX+OXXX oo",
"ooo    O+    +O    ooooo    O+    +O    ooooo    O+    +O    ooo",
"ooo    O+    +O    ooooo    O+    +O    ooooo    O+    +O    ooo",
"oo XXXXO+XXXX+OXXXX ooo XXXXO+XXXX+OXXXX ooo XXXXO+XXXX+OXXXX oo",
"ooXXXXXX++XX++XXXXXXoooXXXXXX++XX++XXXXXXoooXXXXXX++XX++XXXXXXoo",
"ooXXXXXX++XX++XXXXXXoooXXXXXX++XX++XXXXXXoooXXXXXX++XX++XXXXXXoo",
"ooXXXXXXX++++XXXXXXXoooXXXXXXX++++XXXXXXXoooXXXXXXX++++XXXXXXXoo",
"oo XXXXXXO++OXXXXXX ooo XXXXXXO++OXXXXXX ooo XXXXXXO++OXXXXXX oo",
"oo        OO        ooo        OO        ooo        OO        oo",
"ooo       OO       ooooo       OO       ooooo       OO       ooo",
"oooo..............ooooooo..............ooooooo..............oooo",
"ooooo............ooooooooo............ooooooooo............ooooo",
"................................................................",
"................................................................",
"oooooooooooooooooooooooooooooooooooooooooooooooooooooooooooooooo",
"oooooooooooooooooooooooooooooooooooooooooooooooooooooooooooooooo"
};
