/* XPM */
static char *_866213e42f24994e27f2b2a797142d4W4eT19svhZkUhojT[] = {
/* columns rows colors chars-per-pixel */
"64 64 7 1 ",
"  c #3E3B65",
". c #3859B3",
"X c #5E5B8C",
"o c #5E5B8C",
"O c #36C5F4",
"+ c #8A8292",
"@ c white",
/* pixels */
"++++++++++++++++++++++++++++oo++++++++++++++++++++++++++++++++++",
"++++++++++++++++++++++++++++oo++++++++++++++++++++++++++++++++++",
"++++++++++++++++++++++++++++oo++++++++++++++++++++++++++++++++++",
"++++++++++++++++++++++++++++oo+oo+++++++++++++++++++++++++++++++",
"++++++++++++++++++++++++++++oo+oo+++++++++++++++++++++++++++++++",
"++++++++++++++++++++++++++++oo++++++++++++++++++++++++++++++++++",
"++++++++++++++++++++++++++++oo++++++++++++++++++++++++++++++++++",
"++++++++++++++++++++++++++++oo++++++++++++++++++++++++++++++++++",
"++++++++++++++++++++++++++++oo+oo+++++++++++++++++++++++++++++++",
"++++++++++++++++++++++++++++oo+oo+++++++++++++++++++++++++++++++",
"++++++++++++++++++++++++++++oo++++++++++++++++++++++++++++++++++",
"++++++++++++++++++++++++++++oo++++++++++++++++++++++++++++++++++",
"++++++++++++++++++++++++++++oo++++++++++++++++++++++++++++++++++",
"++++++++++++++++++++++++++++oo+oo+++++++++++++++++++++++++++++++",
"++++++++++++++++++++++++++++oo+oo+++++++++++++++++++++++++++++++",
"++++++++++++++++++++++++++++oo++++++++++++++++++++++++++++++++++",
"++++++++++++++++++++++++++++oo++++++++++++++++++++++++++++++++++",
"++++++++++++++++++++++++++++oo++++++++++++++++++++++++++++++++++",
"++++++++++++++++++++++++++++oo+oo+++++++++++++++++++++++++++++++",
"++++++++++++++++++++++++++++oo+oo+++++++++++++++++++++++++++++++",
"++++++++++++++++++++++++++++oo++++++++++++++++++++++++++++++++++",
"++++++++++++++++++++++++++++oo++++++++++++++++++++++++++++++++++",
"++++++++++++++++++++++++++++oo++++++++++++++++++++++++++++++++++",
"++++++++++++++++++++++++++++oo+oo+++++++++++++++++++++++++++++++",
"++++++++++++++++++++++++++++oo+oo+++++++++++++++++++++++++++++++",
"++++++++++++++++++++++++++++oo++++++++++++++++++++++++++++++++++",
"++++++++++++++++++++++++++++oo++++++++++++++++++++++++++++++++++",
"++++++++++++++++++++++++++++oo++++++++++++++++++++++++++++++++++",
"++++++++++++++++++++++++++++oo+oo+++++++++++++++++++++++++++++++",
"++++++++++++++++++++++++++++oo+oo+++++++++++++++++++++++++++++++",
"++++++++++++++++++++++++++++oo++++++++++++++++++++++++++++++++++",
"++++++++++++++++++++++++++++oo++++++++++++++++++++++++++++++++++",
"++++++++++++++++++++++++++++oo++++++++++++++++++++++++++++++++++",
"++++++++++++++++++++++++++++oo+oo+++++++++++++++++++++++++++++++",
"++++++++++++++++++++++++++++oo+oo+++++++++++++++++++++++++++++++",
"++++++++++++++++++++++++++++oo++++++++++++++++++++++++++++++++++",
"++++++++++++++++++++++++++++oo++++++++++++++++++++++++++++++++++",
"++++++++++++++++++++++++++++oo++++++++++++++++++++++++++++++++++",
"++++++++++++++++++++++++++++oo+oo+++++++++++++++++++++++++++++++",
"++++++++++++++++++++++++++++oo+oo+++++++++++++++++++++++++++++++",
"++++++++++++++++++++++++++++oo++++++++++++++++++++++++++++++++++",
"++++++++++++++++++++++++++++oo+++++++++++++++oooooooooooo+++++++",
"++++++++++++++++++++++++++++oo++++++++++++++oooooooooooooo++++++",
"ooooooooooooooooooooooooooooooooooooooooooooo++++++++++++ooooooo",
"oooooooooooooooooooooooooooooooooooooooooooo++++++++++++++oooooo",
"++++++++++++++++++++++++++++++++++++++++++++++++++++++++++++++++",
"++++++++++++++++++++++++++++++++++++++++++++++++++++++++++++++++",
"++++++++++++++++++++++++++++++++++++++++++++++++++++++++++++++++",
"oooooooooooooooooooooooooooooooooooooo+ooooooooooooooooooooooooo",
"XXXXXXXXXXXXXXXXXXXXXXXXXXXXXXXXXXXXXX XXXXXXXXXXXXXXXXXXXXXXXXX",
"XXXXXXXXXXXXXXXXXXXXXXXXXXXXXXXXXXXXXX XXXXXXXXXXXXXXXXXXXXXXXXX",
"XXXXXXXXXXXXXXXXXXXXXXXXXXXXXXXXXXXXXX XXXXXXXXXXXXXXXXXXXXXXXXX",
"                                      +                         ",
"++++++++++++++++++++++++++++++++++++++++++++++++++++++++++++++++",
"++++++++++++++++++++++++++++++++++++++++++++++++++++++++++++++++",
"                                                                ",
"................ .............................. ................",
"@@@@@@@@@@@@@... ...@@@@@@@@@@@@@@@@@@@@@@@@... ...@@@@@@@@@@@@@",
"@@@@@@@@@@@@@O.. ..@@@@@@@@@@@@@@@@@@@@@@@@@O.. ..@@@@@@@@@@@@@@",
"OOOOOOOOOOOOO... ...OOOOOOOOOOOOOOOOOOOOOOOO... ...OOOOOOOOOOOOO",
"................ .............................. ................",
"                                                                ",
"++++++++++++++++++++++++++++++++++++++++++++++++++++++++++++++++",
"++++++++++++++++++++++++++++++++++++++++++++++++++++++++++++++++"
};
