/* XPM */
static char *_5e665d283e74ef2eda294fa29ad32541mkSSopVDYiwNYF7[] = {
/* columns rows colors chars-per-pixel */
"64 64 5 1 ",
"  c #3E3B65",
". c #5E5B8C",
"X c #8C78A5",
"o c #B0A7B8",
"O c #DECEED",
/* pixels */
"oooooooooooooooooooooooooooooooooooooooooooooooooooooooooooooooo",
"oooooooooooooooooooooooooooooooooooooooooooooooooooooooooooooooo",
"XXXXXXXXXXXXXXXXXXXXXXXXXXXXXXXXXXXXXXXXXXXXXXXXXXXXXXXXXXXXXXXX",
"XXXXXXXXXXXXXXXXXXXXXXXXXXXXXXXXXXXXXXXXXXXXXXXXXXXXXXXXXXXXXXXX",
"ooooooooooXXoooooooooooooooooooXXoooooooooooooooooooXXoooooooooo",
"ooooooooooXXoooooooooooooooooooXXoooooooooooooooooooXXoooooooooo",
"oooooooXXoXXoXXoooooooooooooXXoXXoXXoooooooooooooXXoXXoXXooooooo",
"oooooooXXoXXoXXoooooooooooooXXoXXoXXoooooooooooooXXoXXoXXooooooo",
"ooooooooooXXoooooooooooooooooooXXoooooooooooooooooooXXoooooooooo",
"ooooooooooXXoooooooooooooooooooXXoooooooooooooooooooXXoooooooooo",
"ooooooooooXXoooooooooooooooooooXXoooooooooooooooooooXXoooooooooo",
"ooooooooooXXoooooooooooooooooooXXoooooooooooooooooooXXoooooooooo",
"ooooooooooXXoooooooooooooooooooXXoooooooooooooooooooXXoooooooooo",
"ooooooooooXXoooooooooooooooooooXXoooooooooooooooooooXXoooooooooo",
"ooooooooooXXoooooooooooooooooooXXoooooooooooooooooooXXoooooooooo",
"oooooooooo                                            oooooooooo",
"ooooooooo                                              ooooooooo",
"oooooooo   ..........................................   oooooooo",
"ooooooo   ............................................   ooooooo",
"ooooooo  ..............................................  ooooooo",
"ooooooo  ..............................................  ooooooo",
"ooooooo  ..............................................  ooooooo",
"ooooooo  ..............................................  ooooooo",
"ooooooo  .....                                    .....  ooooooo",
"ooooooo  ....                                      ....  ooooooo",
"ooooooo  ...  XXXXXXXXXXXXXXXXXO XXXXXXXXXXXXXXXXX  ...  ooooooo",
"ooooooo  ... .OXXXXXXXXXXXXXXXXO XXXXXXXXXXXXXXXXO. ...  ooooooo",
"ooooooo  ... ..OXXXXXXXXXXXXXXXO XXXXXXXXXXXXXXXO.. ...  ooooooo",
"ooooooo  ... ...OXXXXXXXXXXXXXXO XXXXXXXXXXXXXXO... ...  ooooooo",
"ooooooo  ... ....OXXXXXXXXXXXXXO XXXXXXXXXXXXXO.... ...  ooooooo",
"ooooooo  ... .....OXXXXXXXXXXXXO XXXXXXXXXXXXO..... ...  ooooooo",
"ooooooo  ... ......XXXXXXXXXXXXO XXXXXXXXXXXX...... ...  ooooooo",
"ooooooo  ... ......XXXXXXXXXXXXO XXXXXXXXXXXX...... ...  ooooooo",
"ooooooo  ... .....XXXXXXXXXXXXXO XXXXXXXXXXXXX..... ...  ooooooo",
"ooooooo  ... ....XXXXXXXXXXXXXXO XXXXXXXXXXXXXX.... ...  ooooooo",
"ooooooo  ... ...XXXXXXXXXXXXXXXO XXXXXXXXXXXXXXX... ...  ooooooo",
"ooooooo  ... ..XXXXXXXXXXXXXXXXO  XXXXXXXXXXXXXXX.. ...  ooooooo",
"ooooooo  ... .OXXXXXXXXXXXXXXXXXO  XXXXXXXXXXXXXXO. ...  ooooooo",
"ooooooo  ... ..OXXXXXXXXXXXXXXXXXO  XXXXXXXXXXXXO.. ...  ooooooo",
"ooooooo  ... ...OXXXXXXXXXXXXXXXXXO XXXXXXXXXXXO... ...  ooooooo",
"ooooooo  ... ....OXXXXXXXXXXXXXXXXO XXXXXXXXXXO.... ...  ooooooo",
"ooooooo  ... .....OXXXXXXXXXXXXXXXO XXXXXXXXXO..... ...  ooooooo",
"ooooooo  ... ......XXXXXXXXXXXXXXXO XXXXXXXXX...... ...  ooooooo",
"ooooooo  ... ......XXXXXXXXXXXXXXXO XXXXXXXXX...... ...  ooooooo",
"ooooooo  ... .....XXXXXXXXXXXXXXXXO XXXXXXXXXX..... ...  ooooooo",
"ooooooo  ... ....XXXXXXXXXXXXXXXXO  XXXXXXXXXXX.... ...  ooooooo",
"ooooooo  ... ...XXXXXXXXXXXXXXXXO  XXXXXXXXXXXXX... ...  ooooooo",
"ooooooo  ... ..XXXXXXXXXXXXXXXXO  XXXXXXXXXXXXXXX.. ...  ooooooo",
"ooooooo  ... .OXXXXXXXXXXXXXXXXO XXXXXXXXXXXXXXXXO. ...  ooooooo",
"ooooooo  ... ..OXXXXXXXXXXXXXXXO XXXXXXXXXXXXXXXO.. ...  ooooooo",
"ooooooo  ... ...OXXXXXXXXXXXXXXO XXXXXXXXXXXXXXO... ...  ooooooo",
"ooooooo  ... ....OXXXXXXXXXXXXXO XXXXXXXXXXXXXO.... ...  ooooooo",
"ooooooo  ... .....OXXXXXXXXXXXXO XXXXXXXXXXXXO..... ...  ooooooo",
"ooooooo  ... ......XXXXXXXXXXXXO XXXXXXXXXXXX...... ...  ooooooo",
"ooooooo  ... ......XXXXXXXXXXXXO XXXXXXXXXXXX...... ...  ooooooo",
"ooooooo  ... .....XXXXXXXXXXXXXO XXXXXXXXXXXXX..... ...  ooooooo",
"ooooooo  ... ....XXXXXXXXXXXXXXO XXXXXXXXXXXXXX.... ...  ooooooo",
"ooooooo  ... ...XXXXXXXXXXXXXXXO XXXXXXXXXXXXXXX... ...  ooooooo",
"ooooooo  ... ..XXXXXXXXXXXXXXXXO XXXXXXXXXXXXXXXX.. ...  ooooooo",
"ooooooo  ... .XXXXXXXXXXXXXXXXXO XXXXXXXXXXXXXXXXX. ...  ooooooo",
"XXXXXXX   ..  XXXXXXXXXXXXXXXXXO XXXXXXXXXXXXXXXXX  ..   XXXXXXX",
"XXXXXXXX   ..                                      ..   XXXXXXXX",
"ooooooooo  ...                                    ...  ooooooooo",
"oooooooooo                                            oooooooooo"
};
