/* XPM */
static char *_d4bdb28bbd843aed7a92b9fe5cf2a758pz1WmTIV5BYzzjR[] = {
/* columns rows colors chars-per-pixel */
"64 64 7 1 ",
"  c #10121C",
". c #3859B3",
"X c #3388DE",
"o c #36C5F4",
"O c #B0A7B8",
"+ c #D3EED3",
"@ c white",
/* pixels */
".++++++++++++++++++++++++++++++++++++++++++++++++++++++++++++++.",
".++++++++++++++++++++++++++++++++++++++++++++++++++++++++++++++.",
".++++++++++++++++++++++++++++++++++++++++++++++++++++++++++++++.",
".++++++++++++++++++++++++++++++++++++++++++++++++++++++++++++++.",
".++++++++++++++++++++++++++++++++++++++++++++++++++++++++++++++.",
".++++++++++++++++++++++++++++++++++++++++++++++++++++++++++++++.",
".++++++++++++++++++++++++++++++++++++++++++++++++++++++++++++++.",
"................................................................",
"................................................................",
".++++++++++++++++++++++++++++++++++++++++++++++++++++++++++++++.",
".+..+++++++++++++++++++++++++++++++++++++++++++++++++++++++++++.",
".+..+++++++++++++++++++++++++++++++++++++++++++++++++++++++++++.",
".++++++++++++++++++++++++++++++++++++++++++++++++++++++++++++++.",
".++++++                                                  ++++++.",
"....... OOOOOOOOOOOOOOOOOOOOOOOOOOOOOOOOOOOOOOOOOOOOOOOO .......",
"....... O                                              O .......",
".++++++ O XXXXXXXXXXXXXXXXXXXXXXXXXXXXXXXXXXXXXXXXXXXX O ++++++.",
".++++++ O XXXXXXXXXXXXXXXXXXXXXXXXXXXXXXXXXXXXXXXXXXXX O ++++++.",
".++++++ O XXXXXXXXXXXXXXXXXXXXXXXXXXXXXXXX@XXXXXXXXXXX O ++++++.",
".++++++ O XXX@@@@@@XXXXXXX@XX@X@XXXXX@X@XX@XX@@XXXXXXX O ++++++.",
".++++++ O XX@XXXXXX@XXXX@@@XX@@@XX@@@XXX@@@XX@X@XXXXXX O ++++++.",
".++++++ O XX@@@@XXX@XXXXXXXXXXXX@XXXXXXXXXXXXXXXXXXXXX O ++++++.",
".++++++ O X@XXXX@XX@XXXXXXXXXXXXXXXXXXX@XXXXXXXXXXXXXX O ++++++.",
".++++++ O X@XXXX@XXX@XXXXXXXXXXXX@XXXXX@XXX@@@XXXXXXXX O ++++++.",
".++++++ O X@XXXX@XXX@XXXXXX@@@@@X@@@@@X@XX@@X@@@XXXXXX O ++++++.",
".++++++ O XX@@@@XXXX@XXXXXXXXXXXXXXXXXXXXXXXXXXXXXXXXX O ++++++.",
".++++++ O XX@XXXXXXX@XXXXXXXXXXXXXXXXXXXXXXXXXXXXXXXXX O ++++++.",
".++++++ O XX@XXXXXX@XXXXXXXXXXXXXXXXXXXXXXXXXXXXXXXXXX O ++++++.",
".++++++ O XX@XXXXXX@XXXXXXXXXXXXXXXXXXXXXXXXXXXXXXXXXX O ++++++.",
".++++++ O XX@XXXXXX@XXXXXXXXXXXXXXXXXXXXXXXXXXXXXXXXXX O ++++++.",
".++++++ O XX@XXXXXX@XXXXXXXXXXXXXXXXXXXXXXXXXXXXXXXXXX O ++++++.",
".++++++ O XXX@@@@@@XXXXXXXXXXXXXXXXXXXXXXXXXXXXXXXXXXX O ++++++.",
".++++++ O XXXXXXXXXXXXXXXXXXXXXXXXXXXXXXXXXXXXXXXXXXXX O ++++++.",
".++++++ O XXXXXXXXXXXXXXXXXXXXXXXXXXXXXXXXXXXXXXXXXXXX O ++++++.",
".++++++ O XXXXXXXXXXXXXXXXXXXXXXXXXXXXXXXXXXXXXXXXXXXX O ++++++.",
".++++++ O XXXXXXXXXXXXXXXXXXXXXXXXXXXXXXXXXXXXXXXXXXXX O ++++++.",
".++++++ O                                              O ++++++.",
".++++++ OOOOOOOOOOOOOOOOOOOOOOOOOOOOOOOOOOOOOOOOOOOOOOOO ++++++.",
".++++++                                                  ++++++.",
".oooooo OOOO XoXoXoXoXoXoX OOOOOOOOOOOOOO   OOOOOOOOOOOO oooooo.",
".ooooo OOOO XXXXXXXXXXXXXXo OOOOOOOOOOOO ooX OOOOOOOOOOOO ooooo.",
".XXXX OOOO XXoXoXoooooXoXooX OOOOOOOOOOO XXXX OOOOOOOOOOOO XXXX.",
".XXX OOOO XXXXXXXXXXXXXXXXXXX OOOOOOOOOOO XXX OOOOOOOOOOOOO XXX.",
".XX OOOOO                     OOOOOOOOOOOO   OOOOOOOOOOOOOOO XX.",
".X OOOOOOOOOOOOOOOOOOOOOOOOOOOOOOOOOOOOOOOOOOOOOOOOOOOOOOOOOO X.",
".                 OOOOOOOOOOOOOOOOOOOOOOOOOOOO                 .",
". OOOOOOOOOOOOOOOO                            OOOOOOOOOOOOOOOO .",
".                 OOOOOOOOOOOOOOOOOOOOOOOOOOOO                 .",
". ................                            ................ .",
".X .......................................................... X.",
".X .......................................................... X.",
".XX ........................................................ XX.",
".XX ........................................................ XX.",
".XXX ...................................................... XXX.",
".XXX ...................................................... XXX.",
".XXXX .................................................... XXXX.",
".XXXX .................................................... XXXX.",
".XXXXX                ....................                XXXXX.",
".XXXXXXXXXXXXXXXXXXXXX                    XXXXXXXXXXXXXXXXXXXXX.",
".XXXXXXXXXXXXXXXXXXXXXXXXXXXXXXXXXXXXXXXXXXXXXXXXXXXXXXXXXXXXXX.",
".XXXXXXXXXXXXXXXXXXXXXXXXXXXXXXXXXXXXXXXXXXXXXXXXXXXXXXXXXX..XX.",
".XXXXXXXXXXXXXXXXXXXXXXXXXXXXXXXXXXXXXXXXXXXXXXXXXXXXXXXXXX..XX.",
".XXXXXXXXXXXXXXXXXXXXXXXXXXXXXXXXXXXXXXXXXXXXXXXXXXXXXXXXXXXXXX.",
".XXXXXXXXXXXXXXXXXXXXXXXXXXXXXXXXXXXXXXXXXXXXXXXXXXXXXXXXXXXXXX."
};
