/* XPM */
static char *_d2beead397c4684c0b3d08a1dff2580ut0SKTLFOjYIIc1v[] = {
/* columns rows colors chars-per-pixel */
"64 64 8 1 ",
"  c black",
". c #10121C",
"X c #14A742",
"o c #50EF39",
"O c #5E5B8C",
"+ c #8C78A5",
"@ c #B0A7B8",
"# c white",
/* pixels */
"                                                                ",
"                                                                ",
"                                                                ",
"                                                                ",
"                                                                ",
"                                                                ",
"                                                                ",
"                                                                ",
"                                                                ",
"                                                                ",
"                                                                ",
"                                                                ",
"                                                                ",
"                                                                ",
"                                                                ",
"                                                                ",
"                                                                ",
"                                                                ",
"                                                                ",
"                                                                ",
"                                                                ",
"                                                                ",
"                                                                ",
"                          XXXXXXXXXXXXX                         ",
"                        XXoooooooooooooX                        ",
"                        XXoooooooooooooX                        ",
"                       XooooooooooooooooXX                      ",
"                     XXoooooooooooooooooooX                     ",
"                     XXoooooooooooooooooooX                     ",
"                     XXooooo++++++++++++++X                     ",
"                     XXoooo+@@@@@@@@######+                     ",
"                     XXoooo+@@@@@@@@######+                     ",
"                    XXXooo+@@@@@@@@@@@@@@@@++                   ",
"                  XXoXXooo+@@@@@@@@@@@@@@@@++                   ",
"                  XXoXXooo+@@@@@@@@@@@@@@@@++                   ",
"                  XXoXXooo+@@@@@@@@@@@@@@@@++                   ",
"                  XXoXXoooo+@@@@@@@@@@@@@@+                     ",
"                  XXoXXoooo+@@@@@@@@@@@@@@+                     ",
"                  XXoXXooooo++++++++++++++X                     ",
"                  XXoXXoooooooooooooooooooX                     ",
"                  XXoXXoooooooooooooooooooX                     ",
"                  XXoXXoooooooooooooooooooX                     ",
"                  XXoXXoooooooooooooooooooX                     ",
"                  XXoXXoooooooooooooooooooX                     ",
"                  XXoXXoooooooooooooooooooX                     ",
"                  XXoXXoooooooooooooooooooX                     ",
"                  XXoXXoooooooooooooooooooX                     ",
"                  XXoXXoooooooooooooooooooX                     ",
"                  XXoXXoooooooooooooooooooX                     ",
"                  XXoXXoooooooooooooooooooX                     ",
"                    XXXooooooooXXXXXXoooooX                     ",
"                    XXXoooooooXXXXooooooooX                     ",
"                     XXoooooooXXXXooooooooX                     ",
"                     XXoooooooX  XooooooooX                     ",
"                     XXoooooooX  XooooooooX                     ",
"                     XXoooooooX  XooooooooX                     ",
"                     XXoooooooX  XooooooooX                     ",
"                     XXoooooooX  XooooooooX                     ",
"                     XXoooooooX  XooooooooX                     ",
"                     XXoooooooXOOXooooooooX                     ",
"                    OOOXXXXXXXOOOOXXXXXXXXOOO                   ",
"                  OOOOOOOOOOOOOOOOOOOOOOOOOOOO                  ",
"                   OOOOOOOOOOOOOOOOOOOOOOOOOO                   ",
"                           OOOOOOOOOO                           "
};
