/* XPM */
static char *_4263bc34662441a8b201c2b2e04434aAQF61XSG6GnS7bBv[] = {
/* columns rows colors chars-per-pixel */
"64 64 7 1 ",
"  c black",
". c #10121C",
"X c #006554",
"o c #26854C",
"O c #8C78A5",
"+ c #B0A7B8",
"@ c white",
/* pixels */
"                                                                ",
"         .......                          ...                   ",
"         .@@@@@..                         .@.                   ",
"         .@....@.                         .@.   ...             ",
"         .@....@...........................@.....@......        ",
"         .@....@..@@@.@@...@@@..@.@@..@@@..@@@@.....@@@..       ",
"         .@@@@@..@...@..@.@...@.@@...@...@.@...@.@.@...@.       ",
"         .@....@.@...@..@.@@@@..@....@.....@...@.@.@...@.       ",
"         .@....@.@...@..@.@.....@....@.....@...@.@.@...@.       ",
"         .@....@.@...@..@.@...@.@....@...@.@...@.@.@...@.       ",
"         .@@@@@..@...@..@..@@@..@.....@@@..@...@.@.@...@.       ",
"         ................................................       ",
"                                                                ",
"                         XXXXXXXXXXXXXXXXXX                     ",
"                         XXXXXXXXXXXXXXXXXX                     ",
"                       XXooooooooooooooooooXX                   ",
"                       XXooooooooooooooooooXX                   ",
"                     XXooooooooooooooooooooooXX                 ",
"                     XXooooooooooooooooooooooXX                 ",
"                   XXooooooooooooooooooooooooooXX               ",
"                   XXooooooooooooooooooooooooooXX               ",
"                   XXooooooooOOOOOOOOOOOOOOOOOOXX               ",
"                   XXooooooooOOOOOOOOOOOOOOOOOOXX               ",
"                   XXooooooOO++++++++++@@@@@@@@OO               ",
"                   XXooooooOO++++++++++@@@@@@@@OO               ",
"                 XXXXoooooO++++++++++++++++++++++OO             ",
"                 XXXXoooooO++++++++++++++++++++++OO             ",
"               XXooXXoooooO++++++++++++++++++++++OO             ",
"               XXooXXoooooO++++++++++++++++++++++OO             ",
"               XXooXXoooooO++++++++++++++++++++++OO             ",
"               XXooXXoooooO++++++++++++++++++++++OO             ",
"               XXooXXooooooOO++++++++++++++++++OO               ",
"               XXooXXooooooOO++++++++++++++++++OO               ",
"               XXooXXooooooooOOOOOOOOOOOOOOOOOOXX               ",
"               XXooXXooooooooOOOOOOOOOOOOOOOOOOXX               ",
"               XXooXXooooooooooooooooooooooooooXX               ",
"               XXooXXooooooooooooooooooooooooooXX               ",
"               XXooXXooooooooooooooooooooooooooXX               ",
"               XXooXXooooooooooooooooooooooooooXX               ",
"               XXooXXooooooooooooooooooooooooooXX               ",
"               XXooXXooooooooooooooooooooooooooXX               ",
"               XXooXXooooooooooooooooooooooooooXX               ",
"               XXooXXooooooooooooooooooooooooooXX               ",
"               XXooXXooooooooooooooooooooooooooXX               ",
"               XXooXXooooooooooooooooooooooooooXX               ",
"               XXooXXooooooooooooooooooooooooooXX               ",
"               XXooXXooooooooooooooooooooooooooXX               ",
"               XXooXXooooooooooooooooooooooooooXX               ",
"               XXooXXooooooooooooooooooooooooooXX               ",
"                 XXXXooooooooooooXXXXXXXoooooooXX               ",
"                 XXXXooooooooooooXXXXXXXoooooooXX               ",
"                 XXXXooooooooooXXXXXXooooooooooXX               ",
"                   XXooooooooooXXXXXXooooooooooXX               ",
"                   XXooooooooooXX  XXooooooooooXX               ",
"                   XXooooooooooXX  XXooooooooooXX               ",
"                   XXooooooooooXX  XXooooooooooXX               ",
"                   XXooooooooooXX  XXooooooooooXX               ",
"                   XXooooooooooXX  XXooooooooooXX               ",
"                   XXooooooooooXX  XXooooooooooXX               ",
"                   XXooooooooooXX  XXooooooooooXX               ",
"                   XXooooooooooXX  XXooooooooooXX               ",
"                   XXooooooooooXX  XXooooooooooXX               ",
"                     XXXXXXXXXX      XXXXXXXXXX                 ",
"                     XXXXXXXXXX      XXXXXXXXXX                 "
};
