/* XPM */
static char *_c81718499eb49258c7e4c000b76e66bMta6Gzcr694X9C4C[] = {
/* columns rows colors chars-per-pixel */
"64 64 62 1 ",
"  c black",
". c #10121C",
"X c #3E757D",
"o c #9DE64E",
"O c #3859B3",
"+ c #2F7AC8",
"@ c #3573CA",
"# c #3478CF",
"$ c #347DD4",
"% c #649783",
"& c #68809E",
"* c #7E8B9E",
"= c #56A7AE",
"- c #55A3B8",
"; c #7AACAF",
": c #3382D9",
"> c #3388DE",
", c #4B95C6",
"< c #519ACB",
"1 c #55A0C3",
"2 c #8FAD83",
"3 c #83A293",
"4 c #A5B783",
"5 c #A9A09E",
"6 c #9BA3A5",
"7 c #85B7B9",
"8 c #C2B8B4",
"9 c #94C7A9",
"0 c #90C3AE",
"q c #97C7AE",
"w c #8CC0B3",
"e c #B7CCAA",
"r c #C0E688",
"t c #C1E68A",
"y c #C4E68F",
"u c #C5E690",
"i c #C9E797",
"p c #CAE699",
"a c #CEE79F",
"s c #C8CFA9",
"d c #C5D7B8",
"f c #D6DFB2",
"g c #D4E6A9",
"h c #D4E7A9",
"j c #D5E7A9",
"k c #D1E3AF",
"l c #D8E7AF",
"z c #CDE0B4",
"x c #D8E7B0",
"c c #D9E7B2",
"v c #DDE7B8",
"b c #DFE4BC",
"n c #E2E7BF",
"m c #D7CDC4",
"M c #E5E7C4",
"N c #E7E7C7",
"B c #ECE7CF",
"V c #EDE7D2",
"C c #EDE5D4",
"Z c #F1E7D8",
"A c #F2E7DA",
"S c #F6E8E0",
/* pixels */
"                                                                ",
"                                                                ",
"                                                                ",
"                                                                ",
"                                                                ",
"                                                                ",
"                                                                ",
"                                                                ",
"                                                                ",
"                                                                ",
"                                                                ",
"                                                                ",
"                                                                ",
"                                                                ",
"                                                                ",
"                                                                ",
"                                                                ",
"                                                                ",
"                                                                ",
"                                                                ",
"                                                                ",
"                                                                ",
"                                                                ",
"                                                                ",
"                                                                ",
"                                                                ",
"                                                                ",
"                                                                ",
"                                                                ",
"                                                                ",
"                                                                ",
"                                                                ",
"                                                                ",
"                                                                ",
"                                                                ",
"                                                                ",
"                                                                ",
"                                                                ",
"                                                                ",
"                                                                ",
"                                                                ",
"                                                                ",
"                                                                ",
"                                                                ",
"                                                                ",
"                                                                ",
"                                                                ",
"                        riouiiiiiiiiuopr                        ",
"       ... tiiiiiituiiipjccjcccclllljcxjpipiytiiiiiit ...       ",
"      .>>>oiclllcllcllvnNVZZASASSSSSZZVNnvllxlllllllio>>>.      ",
"      .>>>oAlllcccahncbNBZSSCm8558mCSSZBMbkMjallllllSo>>>.      ",
"     .>>>>.ooqqqqoo24eefkjlls6*&&*6slljkzde42ooqqqqoo.>>>>.     ",
"     .>>>>.>>>>>>>>.%;7w09qq3.>>>>.3qq90w7;%.>>>>>>>>.>>>>.     ",
"     .>>>O.>>>>>>>>>><<1-===X.>>>>.X===-1<,>>>>>>>>>>.O>>>.     ",
"    .>>>OO.OOOO>>>>>>>$:>>>+>.>>>>.>#>>>:$>>>>>>>OOOO.OO>>>.    ",
"    .>>OO.OOOOOOOOOOOOO@###>.>>>>>>.>###@OOOOOOOOOOOOO.OO>>.    ",
"   .>OOOO.OOOOOOOOOOOOOOOOOO.>>>>>>.OOOOOOOOOOOOOOOOOO.OOOO>.   ",
"   .OOOOO.OOOOOOOOOOOOOOOOOO.O>>>>O.OOOOOOOOOOOOOOOOOO.OOOOO.   ",
"   .OOOOO.OOOOOOOOOOOOOOOOOO.OOOOOO.OOOOOOOOOOOOOOOOOO.OOOOO.   ",
"   .OOOOO.OOOOOOOOOOOOOOOOO.OOOOOOOO.OOOOOOOOOOOOOOOOO.OOOOO.   ",
"    .....OOOOOOOOOOOOOOOOOO.OOOOOOOO.OOOOOOOOOOOOOOOOOO.....    ",
"        ..........OOOOOOOOO.OOOOOOOO.OOOOOOOOO..........        ",
"                  ............OOOO............                  ",
"                              ....                              "
};
