/* XPM */
static char *_d4bdb28bbd843aed7a92b9fe5cf2a758pz1WmTIV5BYzzjR[] = {
/* columns rows colors chars-per-pixel */
"64 64 7 1 ",
"  c #10121C",
". c #8C78A5",
"X c #3388DE",
"o c #36C5F4",
"O c #B0A7B8",
"+ c #B0A7B8",
"@ c white",
/* pixels */
".++++++++++++++++++++++++++++++++++++++++++++++++++++++++++++++.",
".++++++++++++++++++++++++++++++++++++++++++++++++++++++++++++++.",
".++++++++++++++++++++++++++++++++++++++++++++++++++++++++++++++.",
".++++++++++++++++++++++++++++++++++++++++++++++++++++++++++++++.",
".++++++++++++++++++++++++++++++++++++++++++++++++++++++++++++++.",
".++++++++++++++++++++++++++++++++++++++++++++++++++++++++++++++.",
".++++++++++++++++++++++++++++++++++++++++++++++++++++++++++++++.",
".++++++++++++++++++++++++++++++++++++++++++++++++++++++++++++++.",
".++++++++++++++++++++++++++++++++++++++++++++++++++++++++++++++.",
"................................................................",
"................................................................",
".++++++++++++++++++++++++++++++++++++++++++++++++++++++++++++++.",
".++++++++++++++++++++++++++++++++++++++++++++++++++++++++++++++.",
".+..+++                                                  ++++++.",
".+..+++ OOOOOOOOOOOOOOOOOOOOOOOOOOOOOOOOOOOOOOOOOOOOOOOO ++++++.",
".++++++ O                                              O ++++++.",
".++++++ O XXXXXXXXXXXXXXXXXXXXXXXXXXXXXXXXXXXXXXXXXXXX O ++++++.",
"....... O XXXXXXXXXXXXXXXXXXXXXXXXXXXXXXXXXXXXXXXXXXXX O .......",
"....... O XXXXXXXXXXXXXXXXXXXXXXXXXXXXXXXX@XXXXXXXXXXX O .......",
".++++++ O XXX@@@@@@XXXXXXX@XX@X@XXXXX@X@XX@XX@@XXXXXXX O ++++++.",
".++++++ O XX@XXXXXX@XXXX@@@XX@@@XX@@@XXX@@@XX@X@XXXXXX O ++++++.",
".++++++ O XX@@@@XXX@XXXXXXXXXXXX@XXXXXXXXXXXXXXXXXXXXX O ++++++.",
".++++++ O X@XXXX@XX@XXXXXXXXXXXXXXXXXXX@XXXXXXXXXXXXXX O ++++++.",
".++++++ O X@XXXX@XXX@XXXXXXXXXXXX@XXXXX@XXX@@@XXXXXXXX O ++++++.",
".++++++ O X@XXXX@XXX@XXXXXX@@@@@X@@@@@X@XX@@X@@@XXXXXX O ++++++.",
".++++++ O XX@@@@XXXX@XXXXXXXXXXXXXXXXXXXXXXXXXXXXXXXXX O ++++++.",
".++++++ O XX@XXXXXXX@XXXXXXXXXXXXXXXXXXXXXXXXXXXXXXXXX O ++++++.",
".++++++ O XX@XXXXXX@XXXXXXXXXXXXXXXXXXXXXXXXXXXXXXXXXX O ++++++.",
".++++++ O XX@XXXXXX@XXXXXXXXXXXXXXXXXXXXXXXXXXXXXXXXXX O ++++++.",
".++++++ O XX@XXXXXX@XXXXXXXXXXXXXXXXXXXXXXXXXXXXXXXXXX O ++++++.",
".++++++ O XX@XXXXXX@XXXXXXXXXXXXXXXXXXXXXXXXXXXXXXXXXX O ++++++.",
".++++++ O XXX@@@@@@XXXXXXXXXXXXXXXXXXXXXXXXXXXXXXXXXXX O ++++++.",
".++++++ O XXXXXXXXXXXXXXXXXXXXXXXXXXXXXXXXXXXXXXXXXXXX O ++++++.",
".++++++ O XXXXXXXXXXXXXXXXXXXXXXXXXXXXXXXXXXXXXXXXXXXX O ++++++.",
".++++++ O XXXXXXXXXXXXXXXXXXXXXXXXXXXXXXXXXXXXXXXXXXXX O ++++++.",
".++++++ O XXXXXXXXXXXXXXXXXXXXXXXXXXXXXXXXXXXXXXXXXXXX O ++++++.",
".++++++ O                                              O ++++++.",
".++++++ OOOOOOOOOOOOOOOOOOOOOOOOOOOOOOOOOOOOOOOOOOOOOOOO ++++++.",
".++++++                                                  ++++++.",
".++++++ OOOO XoXoXoXoXoXoX OOOOOOOOOOOOOO   OOOOOOOOOOOO ++++++.",
".+++++ OOOO XXXXXXXXXXXXXXo OOOOOOOOOOOO ooX OOOOOOOOOOOO +++++.",
".++++ OOOO XXoXoXoooooXoXooX OOOOOOOOOOO XXXX OOOOOOOOOOOO ++++.",
".ooo OOOO XXXXXXXXXXXXXXXXXXX OOOOOOOOOOO XXX OOOOOOOOOOOOO ooo.",
".oo OOOOO                     OOOOOOOOOOOO   OOOOOOOOOOOOOOO oo.",
".X OOOOOOOOOOOOOOOOOOOOOOOOOOOOOOOOOOOOOOOOOOOOOOOOOOOOOOOOOO X.",
".                 OOOOOOOOOOOOOOOOOOOOOOOOOOOO                 .",
". OOOOOOOOOOOOOOOO                            OOOOOOOOOOOOOOOO .",
".                 OOOOOOOOOOOOOOOOOOOOOOOOOOOO                 .",
". ................                            ................ .",
".+ .......................................................... +.",
".+ .......................................................... +.",
".++ ........................................................ ++.",
".++ ........................................................ ++.",
".+++ ...................................................... +++.",
".+++ ...................................................... +++.",
".++++ .................................................... ++++.",
".++++ .................................................... ++++.",
".+++++                ....................                +++++.",
".+++++++++++++++++++++                    +++++++++++++++++++++.",
".++++++++++++++++++++++++++++++++++++++++++++++++++++++++++++++.",
".++++++++++++++++++++++++++++++++++++++++++++++++++++++++++..++.",
".++++++++++++++++++++++++++++++++++++++++++++++++++++++++++..++.",
".++++++++++++++++++++++++++++++++++++++++++++++++++++++++++++++.",
".++++++++++++++++++++++++++++++++++++++++++++++++++++++++++++++."
};
